<svg version="1.1" xmlns="http://www.w3.org/2000/svg" xmlns:xlink="http://www.w3.org/1999/xlink" viewBox="0 0 800 800">
    <defs/>
    <g transform="scale(2,2)">
        <g id="background-images-d62554ac"/>
        <g id="graphpaper-d62554ac">
            <g id="axis-d62554ac">
                <g id="yaxis-d62554ac">
                    <title>g(E)</title>
                    <path fill="none" stroke="#ffffff" class="dcg-svg-axis-line" paint-order="fill stroke markers"
                          d=" M 24 3 L 24 400" stroke-opacity="0.9" stroke-miterlimit="10" stroke-width="1.5"
                          stroke-dasharray=""/>
                    <g class="dcg-svg-axis-line">
                        <path fill="#ffffff" stroke="#ffffff" class="dcg-svg-axis-line"
                              paint-order="stroke fill markers"
                              d=" M 24 1.5 L 27.10582854123025 13.09110991546882 L 20.89417145876975 13.09110991546882 L 24 1.5 L 27.10582854123025 13.09110991546882"
                              stroke-opacity="0.9" stroke-linejoin="round" stroke-miterlimit="10" stroke-width="1.5"
                              stroke-dasharray="" fill-opacity="0.9"/>
                    </g>
                </g>
                <g id="xaxis-d62554ac">
                    <title>E</title>
                    <path fill="none" stroke="#ffffff" class="dcg-svg-axis-line" paint-order="fill stroke markers"
                          d=" M 0 373 L 397 373" stroke-opacity="0.9" stroke-miterlimit="10" stroke-width="1.5"
                          stroke-dasharray=""/>
                    <g class="dcg-svg-axis-line">
                        <path fill="#ffffff" stroke="#ffffff" class="dcg-svg-axis-line"
                              paint-order="stroke fill markers"
                              d=" M 398.5 373 L 386.9088900845312 376.10582854123027 L 386.9088900845312 369.89417145876973 L 398.5 373 L 386.9088900845312 376.10582854123027"
                              stroke-opacity="0.9" stroke-linejoin="round" stroke-miterlimit="10" stroke-width="1.5"
                              stroke-dasharray="" fill-opacity="0.9"/>
                    </g>
                </g>
                <g>
                    <g>
                        <path fill="none" stroke="#ffffff" class="dcg-svg-tickmark" paint-order="fill stroke markers"
                              d="" stroke-opacity="0.9" stroke-miterlimit="2" stroke-width="1.5" stroke-dasharray=""/>
                    </g>
                </g>
                <g class="dcg-svg-axis-label">
                    <text fill="#ffffff" stroke="none" font-family="Times" font-size="20px" font-style="italic"
                          font-weight="normal" text-decoration="normal" x="372.783203125" y="388.3333333333333"
                          text-anchor="start">E
                    </text>
                </g>
                <g class="dcg-svg-axis-label" transform="translate(60.0665346033423,29)">
                    <text fill="#ffffff" stroke="none" font-family="Times" font-size="20px" font-style="italic"
                          font-weight="normal" text-decoration="normal" x="0" y="0" text-anchor="start">g(E)
                    </text>
                </g>
            </g>
        </g>
        <g id="expressions-d62554ac">
            <g id="sketch-d62554ac">
                <title>Expression 2</title>
                <path fill="#c74440" stroke="none" paint-order="stroke fill markers" d="" fill-opacity="0.4"/>
                <g>
                    <path fill="none" stroke="#c74440" class="dcg-svg-curve" paint-order="fill stroke markers"
                          d=" M 23.0391908533423 372.8093026015544 L 26.446559456285875 364.71506537197524 M 26.446559456285875 364.71506537197524 L 27.358789839015987 362.69355034514194 M 30.24839911245585 356.3179575601431 L 33.866622351249084 348.83129196655653 M 33.866622351249084 348.83129196655653 L 35.09965758960761 346.4463287453098 M 38.337971941163076 340.2407754086445 L 42.06774449831367 333.48889854765474 M 42.06774449831367 333.48889854765474 L 43.73667965900407 330.6577631377826 M 47.33095772338082 324.6515874092007 L 51.04992589747966 318.73218624997827 M 51.04992589747966 318.73218624997827 L 53.27958502302283 315.40006652439376 M 57.22639244028253 309.6196231244699 L 61.10606376828505 304.1748142150086 M 61.10606376828505 304.1748142150086 L 63.7132939015806 300.737366638166 M 67.99715508403709 295.20213021028854 L 72.33379051724252 289.82796948512345 M 72.33379051724252 289.82796948512345 L 74.99977667087501 286.72052443549825 M 79.59848270881162 281.44384524029766 L 84.83073855086477 275.70591222791205 M 84.83073855086477 275.70591222791205 L 87.08192100560875 273.383143072423 M 91.96256760886052 268.3655003504449 L 98.98743749520246 261.5470648323431 M 98.98743749520246 261.5470648323431 L 99.88114137136866 260.73102714950454 M 105.05040392197368 256.01099275525354 L 106.70039760970367 254.50438966049083 M 106.70039760970367 254.50438966049083 L 113.34697139569478 248.7895292742959 M 118.75120651093535 244.3413336598332 L 123.00500949732019 240.8925510331114 M 123.00500949732019 240.8925510331114 L 127.39170655098505 237.5356061623573 M 132.97639239167265 233.31601410568055 L 140.67647507611412 227.74852150659314 M 140.67647507611412 227.74852150659314 L 141.91297384078354 226.90292321762615 M 147.691054810674 222.95149558885828 L 150.0491861013308 221.338852016932 M 150.0491861013308 221.338852016932 L 156.88521351704802 216.91390443519197 M 162.80730476444995 213.18274806494273 L 169.96619702991623 208.79311230107587 M 169.96619702991623 208.79311230107587 L 172.21611518134387 207.48518341633428 M 178.26785606035705 203.96716801936958 L 180.510496933285 202.66346958307608 M 180.510496933285 202.66346958307608 L 187.87137205553984 198.60420824463165 M 194.03005599176404 195.2777960579948 L 203.0635828377126 190.54995409237864 M 203.0635828377126 190.54995409237864 L 203.783636784761 190.19212405936 M 210.05225884641828 187.07693908120805 L 215.07236883877152 184.5822008304361 M 215.07236883877152 184.5822008304361 L 219.9502243338419 182.27922483342758 M 226.28019321064028 179.29066430722702 L 227.56931687239376 178.6820319167853 M 227.56931687239376 178.6820319167853 L 236.30456619386007 174.7622140496171 M 242.70765816778268 171.93436192103826 L 252.82535761315634 167.61786357943248 M 259.300617491643 164.95924624941824 L 268.5749276077167 161.19607874485465 M 268.5749276077167 161.19607874485465 L 269.49970712138577 160.83909064328506 M 276.0300369960455 158.31821941925824 L 283.51268580415575 155.4297291864664 M 283.51268580415575 155.4297291864664 L 286.3091842169103 154.40251754439907 M 292.8799284206295 151.98894744819495 L 299.1338708461836 149.69174519016823 M 299.1338708461836 149.69174519016823 L 303.2283367286243 148.26022946491628 M 309.83612346661624 145.95000124562333 L 315.4384827338 143.99129268149096 M 315.4384827338 143.99129268149096 L 320.24436141770923 142.39165918441245 M 326.8861082633293 140.18095820085634 L 332.52415387351795 138.3043385004235 M 332.52415387351795 138.3043385004235 L 337.34563678664153 136.7762505434442 M 344.01852031245085 134.66139228555008 L 350.39088426533726 132.64177865435994 M 350.39088426533726 132.64177865435994 L 352.4313991771034 132.01234099425233"
                          stroke-linecap="round" stroke-linejoin="round" stroke-miterlimit="10" stroke-width="2.5"
                          stroke-opacity="0.9" stroke-dasharray=""/>
                </g>
            </g>
            <g id="sketch-d62554ac">
                <title>Expression 3</title>
                <path fill="#2d70b3" stroke="none" paint-order="stroke fill markers" d="" fill-opacity="0.4"/>
                <g>
                    <path fill="none" stroke="#2d70b3" class="dcg-svg-curve" paint-order="fill stroke markers"
                          d=" M 23.0391908533423 372.809242521608 L 23.0391908533423 372.809242521608 L 26.446879312843876 364.6936586720791 L 30.059616487888402 356.6666547612334 L 33.86763675347588 348.76558628794385 L 37.870940109606295 340.9999810695957 L 42.06952655627966 333.3763374887501 L 46.46339609349597 325.89871445705637 L 51.052548721255235 318.5692183640347 L 55.93462598482892 311.2463554740023 L 61.10962788421702 303.9547739680054 L 66.57755441941956 296.71443616262536 L 72.3384055904365 289.5412383634313 L 78.48982294253933 282.336588908664 L 84.93416493045659 275.2337186967381 L 91.86671464473123 268.0411800090642 L 99.28747208536322 260.7960768531376 L 107.09879570708112 253.6158262663052 L 115.30068550988491 246.50919356781998 L 123.89314149377456 239.48071985782127 L 132.87616365875016 232.5301348385011 L 142.44503509535457 225.51105252177805 L 152.79503889413078 218.2924566497583 L 164.80494896252205 210.28609086760042 L 188.6294860087616 194.52376468246848 L 193.31628018179237 190.984613517557 L 196.63609272102244 188.1181862914275 L 199.17477289808076 185.53299789059082 L 201.12760380351025 183.12549251637148 L 202.59222698258236 180.91253404718728 L 203.8615670711115 178.53085844448827 L 204.83798252382627 176.23511013396885 L 205.71675643126954 173.62899565372456 L 206.4978887934413 170.64472014304405 L 207.18137961034162 167.22145644092734 L 207.76722888197048 163.32988382928846 L 208.3530781535993 157.99106177319274 L 208.84128587995664 151.67888392135217 L 209.32949360631403 142.30514695217107 L 209.72005978739995 130.6507250444294 L 210.01298442321436 117.21666944377347 L 210.30590905902875 95.66294951414932 L 210.78435116038614 52.833333333333314"
                          stroke-linecap="round" stroke-linejoin="round" stroke-miterlimit="10" stroke-width="2.5"
                          stroke-opacity="0.9" stroke-dasharray=""/>
                </g>
            </g>
            <g id="sketch-d62554ac">
                <title>Expression 4</title>
                <path fill="#388c46" stroke="none" paint-order="stroke fill markers" d="" fill-opacity="0.4"/>
                <g>
                    <path fill="none" stroke="#388c46" class="dcg-svg-curve" paint-order="fill stroke markers"
                          d=" M 258.80387874827704 52.833333333333314 L 258.80387874827704 52.833333333333314 L 259.18471604998746 52.833333333333314 L 259.5753189766979 86.61311461622392 L 259.96592190340834 105.00617291855303 L 260.4541755617964 118.43216339248005 L 260.9424292201844 126.77824816548724 L 261.52833361025006 133.35735250612902 L 262.11423800031577 137.82970078997226 L 262.797793122059 141.48914295989056 L 263.4813482438022 144.10610485028562 L 264.2625540972231 146.28244775482597 L 265.1414106823215 148.0496912826293 L 266.1179179990977 149.45397681865947 L 267.1920760475514 150.5437972708092 L 268.46153555936024 151.4192310304163 L 269.8286458028468 152.0241752500312 L 271.39105750968855 152.42536110749893 L 273.24642141156306 152.6299697442039 L 275.59003897182566 152.60945751463382 L 278.5195609221539 152.30387968680856 L 282.3279394575806 151.62346521327916 L 287.40577750481623 150.43145682711923 L 294.7295823806369 148.4171548766997 L 306.7406223769827 144.802300839179 L 352.4313991771034 130.808111081934"
                          stroke-linecap="round" stroke-linejoin="round" stroke-miterlimit="10" stroke-width="2.5"
                          stroke-opacity="0.9" stroke-dasharray=""/>
                </g>
            </g>
            <g id="sketch-d62554ac">
                <title>Expression 5</title>
                <path fill="#c74440" stroke="none" paint-order="stroke fill markers" d="" fill-opacity="0.4"/>
                <g>
                    <path fill="none" stroke="#c74440" class="dcg-svg-curve" paint-order="fill stroke markers"
                          d=" M 211.2647049847772 399.5 L 211.2647049847772 392.9 M 211.2647049847772 388.7 L 211.2647049847772 382.09999999999997 M 211.2647049847772 377.9 L 211.2647049847772 371.29999999999995 M 211.2647049847772 367.09999999999997 L 211.2647049847772 360.49999999999994 M 211.2647049847772 356.29999999999995 L 211.2647049847772 349.69999999999993 M 211.2647049847772 345.49999999999994 L 211.2647049847772 338.8999999999999 M 211.2647049847772 334.69999999999993 L 211.2647049847772 328.0999999999999 M 211.2647049847772 323.8999999999999 L 211.2647049847772 317.2999999999999 M 211.2647049847772 313.0999999999999 L 211.2647049847772 306.4999999999999 M 211.2647049847772 302.2999999999999 L 211.2647049847772 295.6999999999999 M 211.2647049847772 291.4999999999999 L 211.2647049847772 284.89999999999986 M 211.2647049847772 280.6999999999999 L 211.2647049847772 274.09999999999985 M 211.2647049847772 269.89999999999986 L 211.2647049847772 263.29999999999984 M 211.2647049847772 259.09999999999985 L 211.2647049847772 252.49999999999986 M 211.2647049847772 248.29999999999987 L 211.2647049847772 241.69999999999987 M 211.2647049847772 237.4999999999999 L 211.2647049847772 230.8999999999999 M 211.2647049847772 226.6999999999999 L 211.2647049847772 220.0999999999999 M 211.2647049847772 215.89999999999992 L 211.2647049847772 209.29999999999993 M 211.2647049847772 205.09999999999994 L 211.2647049847772 198.49999999999994 M 211.2647049847772 194.29999999999995 L 211.2647049847772 187.69999999999996 M 211.2647049847772 183.49999999999997 L 211.2647049847772 176.89999999999998 M 211.2647049847772 172.7 L 211.2647049847772 166.1 M 211.2647049847772 161.9 L 211.2647049847772 155.3 M 211.2647049847772 151.10000000000002 L 211.2647049847772 144.50000000000003 M 211.2647049847772 140.30000000000004 L 211.2647049847772 133.70000000000005 M 211.2647049847772 129.50000000000006 L 211.2647049847772 122.90000000000006 M 211.2647049847772 118.70000000000006 L 211.2647049847772 112.10000000000007 M 211.2647049847772 107.90000000000006 L 211.2647049847772 101.30000000000007 M 211.2647049847772 97.10000000000007 L 211.2647049847772 90.50000000000007 M 211.2647049847772 86.30000000000007 L 211.2647049847772 79.70000000000007 M 211.2647049847772 75.50000000000007 L 211.2647049847772 68.90000000000008 M 211.2647049847772 64.70000000000007 L 211.2647049847772 58.10000000000007 M 211.2647049847772 53.90000000000008 L 211.2647049847772 47.300000000000075 M 211.2647049847772 43.10000000000008 L 211.2647049847772 36.50000000000008 M 211.2647049847772 32.30000000000008 L 211.2647049847772 25.70000000000008 M 211.2647049847772 21.50000000000008 L 211.2647049847772 14.900000000000082 M 211.2647049847772 10.700000000000083 L 211.2647049847772 4.100000000000083 M 211.2647049847772 -0.09999999999991616 L 211.2647049847772 -0.5"
                          stroke-linecap="round" stroke-linejoin="round" stroke-miterlimit="10" stroke-width="1.5"
                          stroke-opacity="0.9" stroke-dasharray=""/>
                </g>
            </g>
            <g id="sketch-d62554ac">
                <title>Expression 6</title>
                <path fill="#c74440" stroke="none" paint-order="stroke fill markers" d="" fill-opacity="0.4"/>
                <g>
                    <path fill="none" stroke="#c74440" class="dcg-svg-curve" paint-order="fill stroke markers"
                          d=" M 258.32352492388594 399.5 L 258.32352492388594 392.9 M 258.32352492388594 388.7 L 258.32352492388594 382.09999999999997 M 258.32352492388594 377.9 L 258.32352492388594 371.29999999999995 M 258.32352492388594 367.09999999999997 L 258.32352492388594 360.49999999999994 M 258.32352492388594 356.29999999999995 L 258.32352492388594 349.69999999999993 M 258.32352492388594 345.49999999999994 L 258.32352492388594 338.8999999999999 M 258.32352492388594 334.69999999999993 L 258.32352492388594 328.0999999999999 M 258.32352492388594 323.8999999999999 L 258.32352492388594 317.2999999999999 M 258.32352492388594 313.0999999999999 L 258.32352492388594 306.4999999999999 M 258.32352492388594 302.2999999999999 L 258.32352492388594 295.6999999999999 M 258.32352492388594 291.4999999999999 L 258.32352492388594 284.89999999999986 M 258.32352492388594 280.6999999999999 L 258.32352492388594 274.09999999999985 M 258.32352492388594 269.89999999999986 L 258.32352492388594 263.29999999999984 M 258.32352492388594 259.09999999999985 L 258.32352492388594 252.49999999999986 M 258.32352492388594 248.29999999999987 L 258.32352492388594 241.69999999999987 M 258.32352492388594 237.4999999999999 L 258.32352492388594 230.8999999999999 M 258.32352492388594 226.6999999999999 L 258.32352492388594 220.0999999999999 M 258.32352492388594 215.89999999999992 L 258.32352492388594 209.29999999999993 M 258.32352492388594 205.09999999999994 L 258.32352492388594 198.49999999999994 M 258.32352492388594 194.29999999999995 L 258.32352492388594 187.69999999999996 M 258.32352492388594 183.49999999999997 L 258.32352492388594 176.89999999999998 M 258.32352492388594 172.7 L 258.32352492388594 166.1 M 258.32352492388594 161.9 L 258.32352492388594 155.3 M 258.32352492388594 151.10000000000002 L 258.32352492388594 144.50000000000003 M 258.32352492388594 140.30000000000004 L 258.32352492388594 133.70000000000005 M 258.32352492388594 129.50000000000006 L 258.32352492388594 122.90000000000006 M 258.32352492388594 118.70000000000006 L 258.32352492388594 112.10000000000007 M 258.32352492388594 107.90000000000006 L 258.32352492388594 101.30000000000007 M 258.32352492388594 97.10000000000007 L 258.32352492388594 90.50000000000007 M 258.32352492388594 86.30000000000007 L 258.32352492388594 79.70000000000007 M 258.32352492388594 75.50000000000007 L 258.32352492388594 68.90000000000008 M 258.32352492388594 64.70000000000007 L 258.32352492388594 58.10000000000007 M 258.32352492388594 53.90000000000008 L 258.32352492388594 47.300000000000075 M 258.32352492388594 43.10000000000008 L 258.32352492388594 36.50000000000008 M 258.32352492388594 32.30000000000008 L 258.32352492388594 25.70000000000008 M 258.32352492388594 21.50000000000008 L 258.32352492388594 14.900000000000082 M 258.32352492388594 10.700000000000083 L 258.32352492388594 4.100000000000083 M 258.32352492388594 -0.09999999999991616 L 258.32352492388594 -0.5"
                          stroke-linecap="round" stroke-linejoin="round" stroke-miterlimit="10" stroke-width="1.5"
                          stroke-opacity="0.9" stroke-dasharray=""/>
                </g>
            </g>
            <g id="sketch-d62554ac">
                <title>Energy Gap</title>
            </g>
        </g>
        <g id="labels-d62554ac">
            <g transform="rotate(0,0,0) translate(302.7764627470135,213.33333333333331)">
                <g class="dcg-svg-label">
                    <g transform="translate(-82.68271274701351,-18.10832722981769)">
                        <g>
                            <text fill="rgb(199, 68, 64)" stroke="none" font-family="arial, sans-serif"
                                  font-size="30.8px" font-style="normal" font-weight="400" text-decoration="normal"
                                  x="0" y="27.377593896484374" text-anchor="start" fill-opacity="0.9">Energy Gap
                            </text>
                        </g>
                    </g>
                </g>
            </g>
        </g>
    </g>
</svg>