<?xml version="1.0" encoding="UTF-8" standalone="no"?>
<!-- Created with Serif DrawPlus 11, 0, 3, 23 (Feb 25, 14:12:55) (http://www.serif.com) -->
<svg version="1.1" xmlns="http://www.w3.org/2000/svg" xmlns:xlink="http://www.w3.org/1999/xlink" xmlns:inkscape="http://www.inkscape.org/namespaces/inkscape" width="486.525" height="554.811">
	<g id="dp_group001" transform="matrix(1,0,0,1,-677.333,37.6387)">
		<path id="dp_path046" fill="black" fill-rule="evenodd" d="M 893.848,517.171 L 893.849,266.265 L 891.183,266.265 L 891.181,517.171 Z "/>
		<path id="dp_path045" fill="black" fill-rule="evenodd" d="M 890.236,18.1507 L 892.903,18.1507 L 898.236,18.1507 L 891.569,2.75333 L 884.903,18.1507 Z "/>
		<path id="dp_path002" fill="#8a8af7" fill-rule="evenodd" stroke="#1616ef" stroke-width="1.33333" d="M 887.048,324.497 C 888.748,324.481 890.453,324.472 892.165,324.472 C 960.364,324.472 1017.28,335.752 1040.41,344.252 L 1040.4,344.252 L 1040.41,344.252 L 891.884,267.088 L 743.992,345.111 C 764.039,337.995 821.555,325.144 887.048,324.497 Z "/>
		<path id="dp_path035" fill="none" fill-rule="evenodd" stroke="black" stroke-width="1.33333" d="M 886.787,347.464 L 897.453,347.464"/>
		<path id="dp_path036" fill="none" fill-rule="evenodd" stroke="black" stroke-width="1.33333" d="M 886.787,420.896 L 897.453,420.896"/>
		<text id="dp_text001" transform="matrix(1,0,0,-1,883.19,414.291)" xml:space="preserve" fill="black" font-family="Arial" font-size="22" font-weight="400" x="0" y="0">  </text>
		<path id="dp_path004" fill="#8a8af7" fill-rule="evenodd" fill-opacity="0.498039" stroke="#1616ef" stroke-width="1.33333" d="M 888.344,383.675 C 889.693,383.659 891.047,383.649 892.405,383.649 C 946.531,383.649 991.705,394.929 1010.06,403.429 L 1010.05,403.429 L 1010.06,403.429 L 892.181,266.265 L 774.807,404.288 C 790.717,397.172 836.365,384.321 888.344,383.675 Z "/>
		<path id="dp_path005" fill="#8a8af7" fill-rule="evenodd" fill-opacity="0.501961" stroke="#1616ef" stroke-width="1.33333" d="M 892.491,444.619 C 961.453,444.619 1017.36,431.187 1017.36,414.619 C 1017.36,411.063 1015.51,407.079 1010.78,403.913 L 1010.06,403.429 L 892.489,266.319 L 776.6,403.429 C 775.62,404.016 774.713,404.609 773.885,405.212 L 771.263,407.268 L 772.235,406.513 C 769.231,409.092 767.623,411.811 767.623,414.619 C 767.623,431.187 823.528,444.619 892.491,444.619 Z "/>
		<path id="dp_path006" fill="#8a8af7" fill-rule="evenodd" fill-opacity="0.501961" stroke="#1616ef" stroke-width="1.33333" d="M 892.273,385.441 C 979.167,385.441 1049.61,372.009 1049.61,355.441 C 1049.61,351.885 1047.27,347.901 1041.31,344.736 L 1040.41,344.252 L 892.272,268.141 L 746.251,344.252 C 745.016,344.839 743.875,345.432 742.831,346.035 L 739.527,348.091 L 740.751,347.336 C 736.965,349.915 734.94,352.633 734.94,355.441 C 734.94,372.009 805.38,385.441 892.273,385.441 Z "/>
		<g id="dp_group006">
			<path id="dp_path008" fill="black" fill-rule="evenodd" d="M 1098.07,215.092 L 1098.58,217.091 L 1099.59,221.085 L 1108.31,213.555 L 1097.06,211.097 Z "/>
			<path id="dp_path009" fill="black" fill-rule="evenodd" d="M 677.84,323.947 L 1098.58,217.091 L 1098.07,215.093 L 677.333,321.949 Z "/>
		</g>
		<g id="dp_group010">
			<path id="dp_path012" fill="black" fill-rule="evenodd" d="M 1098.58,319.412 L 1098.07,321.411 L 1097.06,325.405 L 1108.31,322.948 L 1099.59,315.417 Z "/>
			<path id="dp_path013" fill="black" fill-rule="evenodd" d="M 677.333,214.555 L 1098.07,321.411 L 1098.58,319.413 L 677.84,212.557 Z "/>
		</g>
		<path id="dp_path018" fill="#8a8af7" fill-rule="evenodd" fill-opacity="0.498039" stroke="#1616ef" stroke-width="1.33333" d="M 891.2,237.159 C 995.727,237.159 1080.46,250.591 1080.46,267.159 C 1080.46,283.727 995.727,297.159 891.2,297.159 C 786.673,297.159 701.937,283.727 701.937,267.159 C 701.937,250.591 786.673,237.159 891.2,237.159 Z "/>
		<text id="dp_text002" transform="matrix(1,0,0,1,881.227,-15.6387)" xml:space="preserve" fill="black" font-family="Arial" font-size="22" font-weight="400" font-style="italic" x="0" y="0">L  </text>
		<text id="dp_text003" transform="matrix(1,0,0,1,894.155,-9.86667)" xml:space="preserve" fill="black" font-family="Arial" font-size="17" font-weight="400" font-style="italic" x="0" y="0">z </text>
		<text id="dp_text004" transform="matrix(1,0,0,1,902.815,-9.86667)" xml:space="preserve" fill="black" font-family="Times New Roman" font-size="13" font-weight="400" font-style="italic" x="0" y="0">  </text>
		<text id="dp_text005" transform="matrix(1,0,0,1,1114.03,216.528)" xml:space="preserve" fill="black" font-family="Arial" font-size="22" font-weight="400" font-style="italic" x="0" y="0">L  </text>
		<text id="dp_text006" transform="matrix(1,0,0,1,1126.96,222.3)" xml:space="preserve" fill="black" font-family="Arial" font-size="17" font-weight="400" font-style="italic" x="0" y="0">y </text>
		<text id="dp_text007" transform="matrix(1,0,0,1,1135.62,222.3)" xml:space="preserve" fill="black" font-family="Times New Roman" font-size="13" font-weight="400" font-style="italic" x="0" y="0">  </text>
		<text id="dp_text008" transform="matrix(1,0,0,1,1111.08,331.808)" xml:space="preserve" fill="black" font-family="Arial" font-size="22" font-weight="400" font-style="italic" x="0" y="0">L  </text>
		<text id="dp_text009" transform="matrix(1,0,0,1,1123.01,337.58)" xml:space="preserve" fill="black" font-family="Arial" font-size="17" font-weight="400" font-style="italic" x="0" y="0">x </text>
		<text id="dp_text010" transform="matrix(1,0,0,1,1131.67,337.58)" xml:space="preserve" fill="black" font-family="Times New Roman" font-size="13" font-weight="400" font-style="italic" x="0" y="0">  </text>
		<g id="dp_group073">
			<path id="dp_path074" fill="#0f0fa3" fill-rule="evenodd" fill-opacity="0.439216" stroke="black" stroke-opacity="0.431373" stroke-width="1.33333" d="M 1029.69,96.9187 L 1021.72,105.879"/>
			<path id="dp_path075" fill="#0f0fa3" fill-rule="evenodd" fill-opacity="0.439216" stroke="black" stroke-opacity="0.431373" stroke-width="1.33333" d="M 1062.24,60.2893 C 1072.35,69.2787 1073.27,84.7667 1064.28,94.8813 C 1055.29,104.996 1039.8,105.908 1029.68,96.9187 C 1019.57,87.9293 1018.66,72.4413 1027.65,62.3267 C 1036.64,52.212 1052.12,51.3 1062.24,60.2893 Z "/>
			<path id="dp_path076" fill="#0f0fa3" fill-rule="evenodd" fill-opacity="0.439216" stroke="black" stroke-opacity="0.431373" stroke-width="1.33333" d="M 1070.2,51.3293 L 1057.59,65.5187"/>
		</g>
		<g id="dp_group077">
			<path id="dp_path078" fill="#0f0fa3" fill-rule="evenodd" fill-opacity="0.439216" stroke="black" stroke-opacity="0.431373" stroke-width="1.33333" d="M 1073.64,160.961 L 1063.18,166.812"/>
			<path id="dp_path079" fill="#0f0fa3" fill-rule="evenodd" fill-opacity="0.439216" stroke="black" stroke-opacity="0.431373" stroke-width="1.33333" d="M 1116.41,137.047 C 1123.02,148.857 1118.8,163.787 1106.99,170.391 C 1095.17,176.995 1080.25,172.773 1073.64,160.961 C 1067.04,149.151 1071.26,134.221 1083.07,127.617 C 1094.88,121.013 1109.81,125.236 1116.41,137.047 Z "/>
			<path id="dp_path080" fill="#0f0fa3" fill-rule="evenodd" fill-opacity="0.439216" stroke="black" stroke-opacity="0.431373" stroke-width="1.33333" d="M 1126.88,131.197 L 1110.31,140.461"/>
		</g>
		<g id="dp_group081">
			<path id="dp_path082" fill="#0f0fa3" fill-rule="evenodd" fill-opacity="0.439216" stroke="black" stroke-opacity="0.431373" stroke-width="1.33333" d="M 1102.87,265.243 L 1090.89,265.571"/>
			<path id="dp_path083" fill="#0f0fa3" fill-rule="evenodd" fill-opacity="0.439216" stroke="black" stroke-opacity="0.431373" stroke-width="1.33333" d="M 1151.85,263.9 C 1152.23,277.427 1141.56,288.693 1128.03,289.064 C 1114.51,289.435 1103.24,278.769 1102.87,265.243 C 1102.5,251.716 1113.16,240.448 1126.69,240.077 C 1140.22,239.707 1151.48,250.373 1151.85,263.9 Z "/>
			<path id="dp_path084" fill="#0f0fa3" fill-rule="evenodd" fill-opacity="0.439216" stroke="black" stroke-opacity="0.431373" stroke-width="1.33333" d="M 1163.84,263.572 L 1144.86,264.092"/>
		</g>
		<g id="dp_group085">
			<path id="dp_path086" fill="#0f0fa3" fill-rule="evenodd" fill-opacity="0.439216" stroke="black" stroke-opacity="0.431373" stroke-width="1.33333" d="M 1030.95,432.34 L 1023.6,422.865"/>
			<path id="dp_path087" fill="#0f0fa3" fill-rule="evenodd" fill-opacity="0.439216" stroke="black" stroke-opacity="0.431373" stroke-width="1.33333" d="M 1060.98,471.067 C 1071.67,462.775 1073.62,447.381 1065.33,436.688 C 1057.03,425.995 1041.64,424.047 1030.95,432.339 C 1020.25,440.631 1018.31,456.023 1026.6,466.717 C 1034.89,477.411 1050.28,479.359 1060.98,471.067 Z "/>
			<path id="dp_path088" fill="#0f0fa3" fill-rule="evenodd" fill-opacity="0.439216" stroke="black" stroke-opacity="0.431373" stroke-width="1.33333" d="M 1068.32,480.54 L 1056.69,465.537"/>
		</g>
		<g id="dp_group089">
			<path id="dp_path090" fill="#0f0fa3" fill-rule="evenodd" fill-opacity="0.439216" stroke="black" stroke-opacity="0.431373" stroke-width="1.33333" d="M 1073.64,360.812 L 1063.18,354.961"/>
			<path id="dp_path091" fill="#0f0fa3" fill-rule="evenodd" fill-opacity="0.439216" stroke="black" stroke-opacity="0.431373" stroke-width="1.33333" d="M 1116.41,384.727 C 1123.02,372.916 1118.8,357.987 1106.98,351.383 C 1095.17,344.779 1080.24,349 1073.64,360.812 C 1067.04,372.623 1071.26,387.552 1083.07,394.156 C 1094.88,400.76 1109.81,396.537 1116.41,384.727 Z "/>
			<path id="dp_path092" fill="#0f0fa3" fill-rule="evenodd" fill-opacity="0.439216" stroke="black" stroke-opacity="0.431373" stroke-width="1.33333" d="M 1126.88,390.576 L 1110.31,381.312"/>
		</g>
		<path id="dp_path016" fill="#8a8af7" fill-rule="evenodd" fill-opacity="0.501961" stroke="#1616ef" stroke-width="1.33333" d="M 891.273,148.901 C 978.167,148.901 1048.61,162.333 1048.61,178.901 C 1048.61,182.457 1046.27,186.441 1040.31,189.607 L 1039.41,190.091 L 891.272,266.201 L 745.251,190.091 C 744.016,189.504 742.875,188.911 741.831,188.308 L 738.527,186.252 L 739.751,187.007 C 735.965,184.428 733.94,181.709 733.94,178.901 C 733.94,162.333 804.38,148.901 891.273,148.901 Z "/>
		<path id="dp_path017" fill="#8a8af7" fill-rule="evenodd" fill-opacity="0.501961" stroke="#1616ef" stroke-width="1.33333" d="M 891.491,89.724 C 960.453,89.724 1016.36,103.156 1016.36,119.724 C 1016.36,123.28 1014.51,127.264 1009.78,130.429 L 1009.06,130.913 L 891.489,268.024 L 775.6,130.913 C 774.62,130.327 773.713,129.733 772.885,129.131 L 770.263,127.075 L 771.235,127.829 C 768.231,125.251 766.623,122.532 766.623,119.724 C 766.623,103.156 822.528,89.724 891.491,89.724 Z "/>
		<path id="dp_path035" fill="none" fill-rule="evenodd" stroke="black" stroke-width="1.33333" d="M 885.787,186.879 L 896.453,186.879"/>
		<path id="dp_path036" fill="none" fill-rule="evenodd" stroke="black" stroke-width="1.33333" d="M 885.787,113.447 L 896.453,113.447"/>
		<g id="dp_group039">
			<path id="dp_path041" fill="#1616ef" fill-rule="evenodd" d="M 988.399,113.357 L 990.736,114.836 L 995.408,117.792 L 996.959,102.415 L 983.725,110.401 Z "/>
			<path id="dp_path042" fill="#1616ef" fill-rule="evenodd" d="M 893.825,268.025 L 990.736,114.836 L 988.4,113.359 L 891.489,266.548 Z "/>
		</g>
		<g id="dp_group047">
			<path id="dp_path049" fill="#1616ef" fill-rule="evenodd" d="M 950.2,252.887 L 950.875,255.568 L 952.224,260.931 L 963.944,250.855 L 948.851,247.524 Z "/>
			<path id="dp_path050" fill="#1616ef" fill-rule="evenodd" d="M 891.907,270.397 L 950.875,255.569 L 950.2,252.887 L 891.232,267.715 Z "/>
		</g>
		<g id="dp_group051">
			<path id="dp_path053" fill="#1616ef" fill-rule="evenodd" d="M 910.655,272.56 L 909.963,275.237 L 908.579,280.592 L 923.693,277.359 L 912.037,267.207 Z "/>
			<path id="dp_path054" fill="#1616ef" fill-rule="evenodd" d="M 891.225,270.396 L 909.963,275.239 L 910.653,272.561 L 891.916,267.719 Z "/>
		</g>
		<text id="dp_text011" transform="matrix(1,0,0,1,882.19,120.052)" xml:space="preserve" fill="black" font-family="Arial" font-size="22" font-weight="400" x="0" y="0">  </text>
		<path id="dp_path046" fill="black" fill-rule="evenodd" d="M 892.903,269.055 L 892.904,18.1493 L 890.237,18.1493 L 890.236,269.055 Z "/>
		<g id="dp_group043">
			<path id="dp_path045" fill="#1616ef" fill-rule="evenodd" d="M 890.236,127.588 L 892.903,127.588 L 898.236,127.588 L 891.569,114.255 L 884.903,127.588 Z "/>
			<path id="dp_path046" fill="#1616ef" fill-rule="evenodd" d="M 892.903,269.056 L 892.904,127.588 L 890.237,127.588 L 890.236,269.056 Z "/>
		</g>
		<path id="dp_path019" fill="#8a8af7" fill-rule="evenodd" fill-opacity="0.498039" stroke="#1616ef" stroke-width="1.33333" d="M 887.344,150.668 C 888.693,150.684 890.047,150.693 891.405,150.693 C 945.531,150.693 990.705,139.413 1009.06,130.913 L 1009.05,130.913 L 1009.06,130.913 L 891.181,268.077 L 773.807,130.055 C 789.717,137.171 835.365,150.021 887.344,150.668 Z "/>
		<path id="dp_path020" fill="#8a8af7" fill-rule="evenodd" fill-opacity="0.501961" stroke="#1616ef" stroke-width="1.33333" d="M 886.048,209.845 C 887.748,209.861 889.453,209.871 891.165,209.871 C 959.364,209.871 1016.28,198.591 1039.41,190.091 L 1039.4,190.091 L 1039.41,190.091 L 890.884,267.255 L 742.992,189.232 C 763.039,196.348 820.555,209.199 886.048,209.845 Z "/>
		<text id="dp_text012" transform="matrix(1,0,0,1,851.368,189.369)" xml:space="preserve" fill="black" font-family="Arial" font-size="22" font-weight="400" font-style="italic" x="0" y="0">+h  </text>
		<path id="dp_path034" fill="none" fill-rule="evenodd" stroke="black" stroke-width="1.33333" d="M 865.368,176.667 L 874.568,176.467"/>
		<text id="dp_text013" transform="matrix(1,0,0,1,841.368,123.869)" xml:space="preserve" fill="black" font-family="Arial" font-size="22" font-weight="400" x="0" y="0">+ </text>
		<text id="dp_text014" transform="matrix(1,0,0,1,854.158,123.869)" xml:space="preserve" fill="black" font-family="Arial" font-size="22" font-weight="400" x="0" y="0">2 </text>
		<text id="dp_text015" transform="matrix(1,0,0,1,866.364,123.869)" xml:space="preserve" fill="black" font-family="Arial" font-size="22" font-weight="400" font-style="italic" x="0" y="0">h </text>
		<text id="dp_text016" transform="matrix(1,0,0,1,878.571,123.869)" xml:space="preserve" fill="black" font-family="Arial" font-size="22" font-weight="400" x="0" y="0">  </text>
		<path id="dp_path059" fill="none" fill-rule="evenodd" stroke="black" stroke-width="1.33333" d="M 868.368,111.167 L 877.568,110.967"/>
		<path id="dp_path060" fill="black" fill-rule="evenodd" stroke="none" stroke-width="2.77067" d="M 838.084,418.66 L 848.485,418.66 L 848.485,420.219 L 838.084,420.219 Z "/>
		<text id="dp_text017" transform="matrix(1,0,0,1,851.627,426.444)" xml:space="preserve" fill="black" font-family="Arial" font-size="22" font-weight="400" x="0" y="0">2 </text>
		<text id="dp_text018" transform="matrix(1,0,0,1,863.834,426.444)" xml:space="preserve" fill="black" font-family="Arial" font-size="22" font-weight="400" font-style="italic" x="0" y="0">h </text>
		<path id="dp_path064" fill="none" fill-rule="evenodd" stroke="black" stroke-width="1.33333" d="M 865.627,413.741 L 874.827,413.541"/>
		<path id="dp_path066" fill="black" fill-rule="evenodd" stroke="none" stroke-width="2.77067" d="M 851.083,352.911 L 861.484,352.911 L 861.484,354.469 L 851.083,354.469 Z "/>
		<text id="dp_text019" transform="matrix(1,0,0,1,863.625,360.694)" xml:space="preserve" fill="black" font-family="Arial" font-size="22" font-weight="400" font-style="italic" x="0" y="0">h  </text>
		<path id="dp_path068" fill="none" fill-rule="evenodd" stroke="black" stroke-width="1.33333" d="M 865.625,347.992 L 874.825,347.792"/>
		<text id="dp_text020" transform="matrix(1,0,0,1,858.444,276.473)" xml:space="preserve" fill="black" font-family="Arial" font-size="22" font-weight="400" x="0" y="0">0 </text>
	</g>
</svg>